<mxfile host="app.diagrams.net" agent="Mozilla/5.0 (Windows NT 10.0; Win64; x64; rv:140.0) Gecko/20100101 Firefox/140.0" version="28.0.6">
  <diagram name="Page-1" id="uDqookbsh2tE5doJYYoJ">
    <mxGraphModel dx="3295" dy="1380" grid="1" gridSize="10" guides="1" tooltips="1" connect="1" arrows="1" fold="1" page="1" pageScale="1" pageWidth="850" pageHeight="1100" math="0" shadow="0">
      <root>
        <mxCell id="0" />
        <mxCell id="1" parent="0" />
        <mxCell id="2" value="Reddit sentiment Analysis&#xa;" style="whiteSpace=wrap;strokeWidth=2;" parent="1" vertex="1">
          <mxGeometry x="840" y="8" width="167" height="54" as="geometry" />
        </mxCell>
        <mxCell id="3" value="Program 1: Reddit Data Collection" style="whiteSpace=wrap;strokeWidth=2;" parent="1" vertex="1">
          <mxGeometry x="-29" y="154.18" width="132" height="54" as="geometry" />
        </mxCell>
        <mxCell id="4" value="Program 2: Reddit Data Processing" style="whiteSpace=wrap;strokeWidth=2;" parent="1" vertex="1">
          <mxGeometry x="640" y="140" width="132" height="54" as="geometry" />
        </mxCell>
        <mxCell id="5" value="Program 4: Visualization &amp; Filtering GUI" style="whiteSpace=wrap;strokeWidth=2;" parent="1" vertex="1">
          <mxGeometry x="2078" y="110" width="132" height="54" as="geometry" />
        </mxCell>
        <mxCell id="6" value="Function 1.1: Define Search Parameters" style="whiteSpace=wrap;strokeWidth=2;" parent="1" vertex="1">
          <mxGeometry x="-237" y="258.18" width="150" height="54" as="geometry" />
        </mxCell>
        <mxCell id="7" value="Function 1.2: Fetch Reddit Posts" style="whiteSpace=wrap;strokeWidth=2;" parent="1" vertex="1">
          <mxGeometry x="-38" y="258.18" width="150" height="54" as="geometry" />
        </mxCell>
        <mxCell id="8" value="Function 1.3: Save Raw Data" style="whiteSpace=wrap;strokeWidth=2;" parent="1" vertex="1">
          <mxGeometry x="162" y="258.18" width="150" height="54" as="geometry" />
        </mxCell>
        <mxCell id="9" value="Function 2.1: Language Detection" style="whiteSpace=wrap;strokeWidth=2;" parent="1" vertex="1">
          <mxGeometry x="361" y="258.18" width="150" height="54" as="geometry" />
        </mxCell>
        <mxCell id="10" value="Function 2.2: Translation" style="whiteSpace=wrap;strokeWidth=2;" parent="1" vertex="1">
          <mxGeometry x="561" y="258.18" width="150" height="54" as="geometry" />
        </mxCell>
        <mxCell id="11" value="Function 4.1: Load Final Data" style="whiteSpace=wrap;strokeWidth=2;" parent="1" vertex="1">
          <mxGeometry x="1770" y="214" width="150" height="54" as="geometry" />
        </mxCell>
        <mxCell id="12" value="Function 4.2: Apply Filters" style="whiteSpace=wrap;strokeWidth=2;" parent="1" vertex="1">
          <mxGeometry x="1970" y="214" width="150" height="54" as="geometry" />
        </mxCell>
        <mxCell id="13" value="Function 4.3: Generate Pie Charts" style="whiteSpace=wrap;strokeWidth=2;" parent="1" vertex="1">
          <mxGeometry x="2169" y="214" width="150" height="54" as="geometry" />
        </mxCell>
        <mxCell id="14" value="Function 4.4: Export Charts (optional)" style="whiteSpace=wrap;strokeWidth=2;" parent="1" vertex="1">
          <mxGeometry x="2369" y="214" width="150" height="54" as="geometry" />
        </mxCell>
        <mxCell id="20" value="" style="curved=1;startArrow=none;endArrow=block;exitX=0;exitY=0.5;entryX=0.5;entryY=0;exitDx=0;exitDy=0;" parent="1" source="2" target="3" edge="1">
          <mxGeometry relative="1" as="geometry">
            <Array as="points">
              <mxPoint x="37" y="129.18" />
            </Array>
            <mxPoint x="452" y="85.82" as="sourcePoint" />
          </mxGeometry>
        </mxCell>
        <mxCell id="21" value="" style="curved=1;startArrow=none;endArrow=block;exitX=0;exitY=0.75;entryX=0.5;entryY=0;exitDx=0;exitDy=0;" parent="1" source="2" target="4" edge="1">
          <mxGeometry relative="1" as="geometry">
            <Array as="points">
              <mxPoint x="670" y="80" />
            </Array>
            <mxPoint x="535.5" y="104.1799999999999" as="sourcePoint" />
          </mxGeometry>
        </mxCell>
        <mxCell id="22" value="" style="curved=1;startArrow=none;endArrow=block;exitX=1;exitY=0.25;entryX=0.5;entryY=0;exitDx=0;exitDy=0;" parent="1" source="2" target="5" edge="1">
          <mxGeometry relative="1" as="geometry">
            <Array as="points">
              <mxPoint x="1540" y="50" />
            </Array>
          </mxGeometry>
        </mxCell>
        <mxCell id="23" value="" style="curved=1;startArrow=none;endArrow=block;exitX=0;exitY=0.82;entryX=0.5;entryY=0;" parent="1" source="3" target="6" edge="1">
          <mxGeometry relative="1" as="geometry">
            <Array as="points">
              <mxPoint x="-162" y="233.18" />
            </Array>
          </mxGeometry>
        </mxCell>
        <mxCell id="24" value="" style="curved=1;startArrow=none;endArrow=block;exitX=0.5;exitY=1;entryX=0.5;entryY=0;" parent="1" source="3" target="7" edge="1">
          <mxGeometry relative="1" as="geometry">
            <Array as="points" />
          </mxGeometry>
        </mxCell>
        <mxCell id="25" value="" style="curved=1;startArrow=none;endArrow=block;exitX=1;exitY=0.82;entryX=0.5;entryY=0;" parent="1" source="3" target="8" edge="1">
          <mxGeometry relative="1" as="geometry">
            <Array as="points">
              <mxPoint x="237" y="233.18" />
            </Array>
          </mxGeometry>
        </mxCell>
        <mxCell id="26" value="" style="curved=1;startArrow=none;endArrow=block;exitX=0.11;exitY=1;entryX=0.5;entryY=0;" parent="1" source="4" target="9" edge="1">
          <mxGeometry relative="1" as="geometry">
            <Array as="points">
              <mxPoint x="436" y="233.18" />
            </Array>
          </mxGeometry>
        </mxCell>
        <mxCell id="27" value="" style="curved=1;startArrow=none;endArrow=block;exitX=0.5;exitY=1;entryX=0.5;entryY=0;exitDx=0;exitDy=0;" parent="1" source="4" target="10" edge="1">
          <mxGeometry relative="1" as="geometry">
            <Array as="points">
              <mxPoint x="636" y="233.18" />
            </Array>
          </mxGeometry>
        </mxCell>
        <mxCell id="28" value="" style="curved=1;startArrow=none;endArrow=block;exitX=0;exitY=0.71;entryX=0.5;entryY=0;" parent="1" source="5" target="11" edge="1">
          <mxGeometry relative="1" as="geometry">
            <Array as="points">
              <mxPoint x="1845" y="189" />
            </Array>
          </mxGeometry>
        </mxCell>
        <mxCell id="29" value="" style="curved=1;startArrow=none;endArrow=block;exitX=0.11;exitY=1;entryX=0.5;entryY=0;" parent="1" source="5" target="12" edge="1">
          <mxGeometry relative="1" as="geometry">
            <Array as="points">
              <mxPoint x="2045" y="189" />
            </Array>
          </mxGeometry>
        </mxCell>
        <mxCell id="30" value="" style="curved=1;startArrow=none;endArrow=block;exitX=0.9;exitY=1;entryX=0.5;entryY=0;" parent="1" source="5" target="13" edge="1">
          <mxGeometry relative="1" as="geometry">
            <Array as="points">
              <mxPoint x="2244" y="189" />
            </Array>
          </mxGeometry>
        </mxCell>
        <mxCell id="31" value="" style="curved=1;startArrow=none;endArrow=block;exitX=1;exitY=0.71;entryX=0.5;entryY=0;" parent="1" source="5" target="14" edge="1">
          <mxGeometry relative="1" as="geometry">
            <Array as="points">
              <mxPoint x="2444" y="189" />
            </Array>
          </mxGeometry>
        </mxCell>
        <mxCell id="SixLG_49V4gO0_ZbfLQa-55" style="edgeStyle=orthogonalEdgeStyle;shape=connector;curved=1;rounded=0;orthogonalLoop=1;jettySize=auto;html=1;entryX=1;entryY=0.5;entryDx=0;entryDy=0;strokeColor=default;align=center;verticalAlign=middle;fontFamily=Helvetica;fontSize=11;fontColor=default;labelBackgroundColor=default;endArrow=classic;" edge="1" parent="1" source="SixLG_49V4gO0_ZbfLQa-36" target="2">
          <mxGeometry relative="1" as="geometry" />
        </mxCell>
        <mxCell id="SixLG_49V4gO0_ZbfLQa-36" value="Program 3: Sentiment Analysis" style="whiteSpace=wrap;strokeWidth=2;" vertex="1" parent="1">
          <mxGeometry x="1249" y="140" width="132" height="54" as="geometry" />
        </mxCell>
        <mxCell id="SixLG_49V4gO0_ZbfLQa-37" value="Function 3.1: Load Processed Data" style="whiteSpace=wrap;strokeWidth=2;" vertex="1" parent="1">
          <mxGeometry x="1140" y="244" width="150" height="54" as="geometry" />
        </mxCell>
        <mxCell id="SixLG_49V4gO0_ZbfLQa-38" value="Function 3.2: Run 3 Sentiment Models" style="whiteSpace=wrap;strokeWidth=2;" vertex="1" parent="1">
          <mxGeometry x="1340" y="244" width="150" height="54" as="geometry" />
        </mxCell>
        <mxCell id="SixLG_49V4gO0_ZbfLQa-40" value="" style="curved=1;startArrow=none;endArrow=block;exitX=0.11;exitY=1;entryX=0.5;entryY=0;" edge="1" parent="1" source="SixLG_49V4gO0_ZbfLQa-36" target="SixLG_49V4gO0_ZbfLQa-37">
          <mxGeometry relative="1" as="geometry">
            <Array as="points">
              <mxPoint x="1215" y="219" />
            </Array>
          </mxGeometry>
        </mxCell>
        <mxCell id="SixLG_49V4gO0_ZbfLQa-41" value="" style="curved=1;startArrow=none;endArrow=block;exitX=0.89;exitY=1;entryX=0.5;entryY=0;" edge="1" parent="1" source="SixLG_49V4gO0_ZbfLQa-36" target="SixLG_49V4gO0_ZbfLQa-38">
          <mxGeometry relative="1" as="geometry">
            <Array as="points">
              <mxPoint x="1415" y="219" />
            </Array>
          </mxGeometry>
        </mxCell>
        <mxCell id="SixLG_49V4gO0_ZbfLQa-52" style="edgeStyle=orthogonalEdgeStyle;rounded=0;orthogonalLoop=1;jettySize=auto;html=1;entryX=0.75;entryY=1;entryDx=0;entryDy=0;curved=1;" edge="1" parent="1" source="SixLG_49V4gO0_ZbfLQa-50" target="4">
          <mxGeometry relative="1" as="geometry" />
        </mxCell>
        <mxCell id="SixLG_49V4gO0_ZbfLQa-50" value="Function 2.3: Topic Classification" style="whiteSpace=wrap;strokeWidth=2;" vertex="1" parent="1">
          <mxGeometry x="761" y="258.18" width="150" height="54" as="geometry" />
        </mxCell>
        <mxCell id="SixLG_49V4gO0_ZbfLQa-54" style="edgeStyle=orthogonalEdgeStyle;shape=connector;curved=1;rounded=0;orthogonalLoop=1;jettySize=auto;html=1;entryX=1;entryY=0.5;entryDx=0;entryDy=0;strokeColor=default;align=center;verticalAlign=middle;fontFamily=Helvetica;fontSize=11;fontColor=default;labelBackgroundColor=default;endArrow=classic;" edge="1" parent="1" source="SixLG_49V4gO0_ZbfLQa-51" target="4">
          <mxGeometry relative="1" as="geometry">
            <Array as="points">
              <mxPoint x="990" y="167" />
            </Array>
          </mxGeometry>
        </mxCell>
        <mxCell id="SixLG_49V4gO0_ZbfLQa-51" value="Function 2.4: Save Processed Data" style="whiteSpace=wrap;strokeWidth=2;" vertex="1" parent="1">
          <mxGeometry x="940" y="258.18" width="150" height="54" as="geometry" />
        </mxCell>
        <mxCell id="SixLG_49V4gO0_ZbfLQa-57" style="edgeStyle=orthogonalEdgeStyle;shape=connector;curved=1;rounded=0;orthogonalLoop=1;jettySize=auto;html=1;entryX=1;entryY=0.5;entryDx=0;entryDy=0;strokeColor=default;align=center;verticalAlign=middle;fontFamily=Helvetica;fontSize=11;fontColor=default;labelBackgroundColor=default;endArrow=classic;" edge="1" parent="1" source="SixLG_49V4gO0_ZbfLQa-56" target="SixLG_49V4gO0_ZbfLQa-36">
          <mxGeometry relative="1" as="geometry">
            <Array as="points">
              <mxPoint x="1585" y="200" />
              <mxPoint x="1560" y="200" />
              <mxPoint x="1560" y="167" />
            </Array>
          </mxGeometry>
        </mxCell>
        <mxCell id="SixLG_49V4gO0_ZbfLQa-56" value="Function 3.3: Save Sentiment Output" style="whiteSpace=wrap;strokeWidth=2;" vertex="1" parent="1">
          <mxGeometry x="1510" y="244" width="150" height="54" as="geometry" />
        </mxCell>
      </root>
    </mxGraphModel>
  </diagram>
</mxfile>
